<?xml version="1.0" encoding="utf-8"?>
<!-- Generator: Adobe Illustrator 23.0.3, SVG Export Plug-In . SVG Version: 6.00 Build 0)  -->
<svg version="1.1" id="Layer_1" xmlns="http://www.w3.org/2000/svg" xmlns:xlink="http://www.w3.org/1999/xlink" x="0px" y="0px"
	 viewBox="0 0 24 24" enable-background="new 0 0 24 24" xml:space="preserve">
<g>
	<circle fill="none" stroke="#000000" stroke-width="2" stroke-linecap="round" stroke-miterlimit="10" cx="12" cy="13" r="4"/>
	<path fill="none" stroke="#000000" stroke-width="2" stroke-linecap="round" stroke-miterlimit="10" d="M20.7,21
		c1.3,0,2.3-1.1,2.3-2.4V9c0-1.4-1-2.4-2.3-2.4h-2.9c-1,0-1.7-0.8-1.7-1.8l0,0c0-1-0.8-1.8-1.7-1.8H9.7C8.7,3,8,3.8,8,4.8l0,0
		c0,1-0.8,1.8-1.7,1.8h-3C2,6.5,1,7.6,1,9v9.6C1,19.9,2,21,3.3,21H20.7z"/>
</g>
</svg>
