<?xml version="1.0" encoding="utf-8"?>
<svg version="1.1" id="Layer_1" xmlns="http://www.w3.org/2000/svg" xmlns:xlink="http://www.w3.org/1999/xlink" x="0px" y="0px"
	 viewBox="0 0 24 24" style="enable-background:new 0 0 24 24;" xml:space="preserve">
<g>
	<polygon
		fill="none"
		stroke="#000000"
		stroke-width="2"
		stroke-linejoin="round"
		stroke-miterlimit="10"
		points="18,3 2,3 2,21 22,21 22,12 18,12"
	/>
	<rect x="12" y="16" fill="none"
		stroke="#000000"
		stroke-width="2"
		stroke-linejoin="round"
		stroke-miterlimit="10" width="6" height="5"/>
	<line
		fill="none"
		stroke="#000000"
		stroke-width="2"
		stroke-linecap="round"
		stroke-linejoin="round"
		stroke-miterlimit="10"
		x1="6" y1="8" x2="8" y2="8"/>
	<line fill="none"
		stroke="#000000"
		stroke-width="2"
		stroke-linecap="round"
		stroke-linejoin="round"
		stroke-miterlimit="10" x1="12" y1="8" x2="14" y2="8"/>
	<line fill="none"
		stroke="#000000"
		stroke-width="2"
		stroke-linecap="round"
		stroke-linejoin="round"
		stroke-miterlimit="10" x1="12" y1="12" x2="14" y2="12"/>
	<line fill="none"
		stroke="#000000"
		stroke-width="2"
		stroke-linecap="round"
		stroke-linejoin="round"
		stroke-miterlimit="10" x1="6" y1="12" x2="8" y2="12"/>
	<line fill="none"
		stroke="#000000"
		stroke-width="2"
		stroke-linecap="round"
		stroke-linejoin="round"
		stroke-miterlimit="10" x1="6" y1="16" x2="8" y2="16"/>
</g>
<g>
	<polygon fill="none"
		stroke="#000000"
		stroke-width="2"
		stroke-linejoin="round"
		stroke-miterlimit="10" points="18,3 2,3 2,21 22,21 22,12 18,12 	"/>
	<rect x="12" y="16" fill="none"
		stroke="#000000"
		stroke-width="2"
		stroke-linejoin="round"
		stroke-miterlimit="10" width="6" height="5"/>
	<line fill="none"
		stroke="#000000"
		stroke-width="2"
		stroke-linecap="round"
		stroke-linejoin="round"
		stroke-miterlimit="10" x1="6" y1="8" x2="8" y2="8"/>
	<line fill="none"
		stroke="#000000"
		stroke-width="2"
		stroke-linecap="round"
		stroke-linejoin="round"
		stroke-miterlimit="10" x1="12" y1="8" x2="14" y2="8"/>
	<line fill="none"
		stroke="#000000"
		stroke-width="2"
		stroke-linecap="round"
		stroke-linejoin="round"
		stroke-miterlimit="10" x1="12" y1="12" x2="14" y2="12"/>
	<line fill="none"
		stroke="#000000"
		stroke-width="2"
		stroke-linecap="round"
		stroke-linejoin="round"
		stroke-miterlimit="10" x1="6" y1="12" x2="8" y2="12"/>
	<line fill="none"
		stroke="#000000"
		stroke-width="2"
		stroke-linecap="round"
		stroke-linejoin="round"
		stroke-miterlimit="10" x1="6" y1="16" x2="8" y2="16"/>
</g>
<g>
	<polygon fill="none"
		stroke="#000000"
		stroke-width="2"
		stroke-linejoin="round"
		stroke-miterlimit="10"
		points="18,3 2,3 2,21 22,21 22,12 18,12"/>
	<rect x="12" y="16" fill="none"
		stroke="#000000"
		stroke-width="2"
		stroke-linejoin="round"
		stroke-miterlimit="10"
		width="6" height="5"/>
	<line fill="none"
		stroke="#000000"
		stroke-width="2"
		stroke-linecap="round"
		stroke-linejoin="round"
		stroke-miterlimit="10" x1="6" y1="8" x2="8" y2="8"/>
	<line fill="none"
		stroke="#000000"
		stroke-width="2"
		stroke-linecap="round"
		stroke-linejoin="round"
		stroke-miterlimit="10" x1="12" y1="8" x2="14" y2="8"/>
	<line fill="none"
		stroke="#000000"
		stroke-width="2"
		stroke-linecap="round"
		stroke-linejoin="round"
		stroke-miterlimit="10" x1="12" y1="12" x2="14" y2="12"/>
	<line fill="none"
		stroke="#000000"
		stroke-width="2"
		stroke-linecap="round"
		stroke-linejoin="round"
		stroke-miterlimit="10" x1="6" y1="12" x2="8" y2="12"/>
	<line fill="none"
		stroke="#000000"
		stroke-width="2"
		stroke-linecap="round"
		stroke-linejoin="round"
		stroke-miterlimit="10" x1="6" y1="16" x2="8" y2="16"/>
</g>
</svg>
