<?xml version="1.0" encoding="utf-8"?>
<!-- Generator: Adobe Illustrator 23.0.3, SVG Export Plug-In . SVG Version: 6.00 Build 0)  -->
<svg version="1.1" id="Layer_1" xmlns="http://www.w3.org/2000/svg" xmlns:xlink="http://www.w3.org/1999/xlink" x="0px" y="0px"
	 viewBox="0 0 24 24" enable-background="new 0 0 24 24" xml:space="preserve">
<g>
	<path fill="none" stroke="#000000" stroke-width="2" stroke-linecap="round" stroke-miterlimit="10" d="M13,16.5l3.7-13.4
		c0.1-0.5,0.6-1.4,1.9-1l2.6,0.9c0.8,0.4,0.9,1.2,0.8,1.7l-4.3,15.5C16.8,22,15.9,22,14.9,22"/>
	<polyline fill="none" stroke="#000000" stroke-width="2" stroke-linecap="round" stroke-miterlimit="10" points="15.3,22 7,22
		7,17.9 13,16.5 	"/>

		<line fill="none" stroke="#000000" stroke-width="2" stroke-linecap="round" stroke-miterlimit="10" x1="16.3" y1="6.5" x2="21.1" y2="6.5"/>

		<line fill="none" stroke="#000000" stroke-width="2" stroke-linecap="round" stroke-miterlimit="10" x1="10" y1="21.4" x2="10" y2="18"/>
</g>
<path fill="#000000" d="M2.9,22c0,0.5-0.4,1-1,1c-0.5,0-1-0.4-1-1c0-0.5,0.4-1,1-1S2.9,21.4,2.9,22z"/>
<path fill="#000000" d="M3,18c0,0.5-0.5,1-1,1s-1-0.5-1-1s0.5-1,1-1S3,17.5,3,18z"/>
<path fill="#000000" d="M5,20c0,0.5-0.4,1-1,1s-1-0.4-1-1s0.5-1,1-1C4.6,19,5,19.5,5,20z"/>
</svg>
