<?xml version="1.0" encoding="utf-8"?>
<!-- Generator: Adobe Illustrator 23.0.3, SVG Export Plug-In . SVG Version: 6.00 Build 0)  -->
<svg version="1.1" id="Layer_1" xmlns="http://www.w3.org/2000/svg" xmlns:xlink="http://www.w3.org/1999/xlink" x="0px" y="0px"
	 viewBox="0 0 24 24" enable-background="new 0 0 24 24" xml:space="preserve">
<path fill="none" stroke="#000000" stroke-width="2" stroke-miterlimit="10" d="M18,23H6c-1.7,0-3-1.3-3-3v-9h18v9
	C21,21.7,19.7,23,18,23z"/>
<path fill="none" stroke="#000000" stroke-width="2" stroke-miterlimit="10" d="M6,11V7c0-3.3,2.7-6,6-6l0,0c3.3,0,6,2.7,6,6v4"/>
<path fill="#000000" d="M12,19L12,19c-0.6,0-1-0.4-1-1v-1c0-0.6,0.4-1,1-1l0,0c0.6,0,1,0.4,1,1v1C13,18.6,12.6,19,12,19z"/>
</svg>
