<?xml version="1.0" encoding="utf-8"?>
<!-- Generator: Adobe Illustrator 23.0.3, SVG Export Plug-In . SVG Version: 6.00 Build 0)  -->
<svg version="1.1" id="Layer_1" xmlns="http://www.w3.org/2000/svg" xmlns:xlink="http://www.w3.org/1999/xlink" x="0px" y="0px"
	 viewBox="0 0 24 24" enable-background="new 0 0 24 24" xml:space="preserve">
<path fill="none" stroke="#000000" stroke-width="2" stroke-linecap="round" stroke-miterlimit="10" d="M12,20.1L12,20.1l-1.1,1.1
	c-2.2,2.2-5.9,2.2-8.1,0l0,0c-2.2-2.2-2.2-5.9,0-8.1L13.1,2.8c2.2-2.2,5.9-2.2,8.1,0l0,0c2.1,2.1,2.2,5.5,0.4,7.7
	c-0.1,0.1-0.2,0.3-0.4,0.4L20.1,12l-3.7,3.7c-1.2,1.2-3.2,1.2-4.4,0l0,0c-1.2-1.2-1.2-3.2,0-4.4l3.7-3.7"/>
</svg>
