<?xml version="1.0" encoding="utf-8"?>
<!-- Generator: Adobe Illustrator 23.0.3, SVG Export Plug-In . SVG Version: 6.00 Build 0)  -->
<svg version="1.1" id="Layer_1" xmlns="http://www.w3.org/2000/svg" xmlns:xlink="http://www.w3.org/1999/xlink" x="0px" y="0px"
	 viewBox="0 0 32 32" enable-background="new 0 0 32 32" xml:space="preserve">
<g>
	<g>
		<path fill="none" stroke="#000000" stroke-width="2" stroke-linecap="round" stroke-miterlimit="10" d="M26,5
			c-2.7-2.4-6.2-3.8-10-3.8c-6.2,0-11.4,3.7-13.8,9"/>
		<path fill="none" stroke="#000000" stroke-width="2" stroke-linecap="round" stroke-miterlimit="10" d="M30.5,20.1
			c0.4-1.3,0.5-2.6,0.5-4c0-2.7-0.7-5.3-2-7.5"/>
		<path fill="none" stroke="#000000" stroke-width="2" stroke-linecap="round" stroke-miterlimit="10" d="M1,15.1c0,0.3,0,0.7,0,1
			c0,1.4,0.2,2.7,0.5,4"/>
	</g>
	<g>
		<path fill="none" stroke="#000000" stroke-width="2" stroke-linecap="round" stroke-miterlimit="10" d="M20.4,25.9
			c-0.2,1.8-0.5,3.8-0.7,5"/>
		<path fill="none" stroke="#000000" stroke-width="2" stroke-linecap="round" stroke-miterlimit="10" d="M9.7,29.6
			c1.4-5.8,1.2-13.5,1.2-13.5c0-2.8,2.3-5.1,5.1-5.1s5.1,2.3,5.1,5.1c0,0,0,3-0.3,4.7"/>
	</g>
	<path fill="none" stroke="#000000" stroke-width="2" stroke-linecap="round" stroke-miterlimit="10" d="M16,16.1
		c0,0-0.1,4.2-0.5,8.3"/>
	<g>
		<path fill="none" stroke="#000000" stroke-width="2" stroke-linecap="round" stroke-miterlimit="10" d="M13,6.6
			c0.9-0.3,2-0.5,3-0.5c5.5,0,10,4.5,10,10c0,0,0,7-1,12"/>
		<path fill="none" stroke="#000000" stroke-width="2" stroke-linecap="round" stroke-miterlimit="10" d="M5,26.1c1-4,1-10,1-10
			c0-2.2,0.7-4.3,2-6"/>
	</g>
</g>
</svg>
